<svg xmlns="http://www.w3.org/2000/svg" width="175" height="46" xml:space="preserve"><path fill="#0D0D0D" d="M142.65 16.917c-6.351-.115-17.438-.347-29.365-.604C109.757 13.406 93.792.843 80.634.16 50.866-1.644 23.313 12.357 23.313 12.357c17.003-4.381 20.344-4.376 20.344-4.376-4.651 5.499 12.016 6.53 12.016 6.53C41.486 9.442 50.541 3.175 80.014 4.028c9.352.271 20.985 9.324 24.331 12.092a57340 57340 0 0 1-41.54-.921s23.247 4.125 47.597 4.426c31.279.387 54.76 5.422 55.35 12.116h7.559l.581-5.93c-.002 0-12.327-8.55-31.242-8.894zM.943 15.199c.294 3.091 2.481 4.232 2.481 4.232C-2.158 28.217.764 39.99.764 39.99s1.574-13.749 7.078-18.818c5.503-5.07 50.931-2.449 50.931-2.449-30.116-6.317-56.434-5.802-57.83-3.524z"/><path fill="#0D0D0D" d="M140.479 25.811c-13.857-2.062-19.38 8.443-19.38 8.443l-58.295 7.998 62.481-4.453c4.302-12.414 15.194-11.988 15.194-11.988zM36.37 25.51c-7.886 0-14.453 6.247-15.901 14.52-2.249.19-12.307 1.005-15.708.604 0 0 12.305 3.158 17.81 2.965l-.309-.676c1.132-7.514 7.009-13.245 14.108-13.245 7.271 0 13.262 6.012 14.184 13.792h2.018c0-9.919-7.254-17.96-16.202-17.96z"/><path fill="#0D0D0D" d="M158.645 41.843c-1.533-8.147-8.035-14.271-15.841-14.271-7.204 0-13.298 5.216-15.401 12.426L62.804 44.75l63.817.376v.009h2.054c1.077-7.586 6.983-13.395 14.129-13.395s13.054 5.809 14.13 13.395h2.055l-.002-.049 13.043-.757-13.385-2.486z"/></svg>