<svg width="214" height="99" viewBox="0 0 214 99" fill="none" xmlns="http://www.w3.org/2000/svg">
<g clip-path="url(#clip0_646_15)">
<path d="M161.65 16.917C155.299 16.802 144.212 16.57 132.285 16.313C128.757 13.406 112.792 0.842987 99.6344 0.159987C69.8664 -1.64401 42.3134 12.357 42.3134 12.357C59.3164 7.97599 62.6574 7.98099 62.6574 7.98099C58.0064 13.48 74.6734 14.511 74.6734 14.511C60.4864 9.44199 69.5414 3.17499 99.0144 4.02799C108.366 4.29899 119.999 13.352 123.345 16.12C109.499 15.818 95.6519 15.511 81.8054 15.199C81.8054 15.199 105.052 19.324 129.402 19.625C160.681 20.012 184.162 25.047 184.752 31.741H192.311L192.892 25.811C192.89 25.811 180.565 17.261 161.65 16.917ZM19.9434 15.199C20.2374 18.29 22.4244 19.431 22.4244 19.431C16.8424 28.217 19.7644 39.99 19.7644 39.99C19.7644 39.99 21.3384 26.241 26.8424 21.172C32.3454 16.102 77.7734 18.723 77.7734 18.723C47.6574 12.406 21.3394 12.921 19.9434 15.199Z" fill="#B38D38"/>
<path d="M159.479 25.8108C145.622 23.7488 140.099 34.2538 140.099 34.2538L81.8037 42.2518L144.285 37.7988C148.587 25.3848 159.479 25.8108 159.479 25.8108ZM55.3697 25.5098C47.4837 25.5098 40.9167 31.7568 39.4687 40.0298C37.2197 40.2198 27.1617 41.0348 23.7607 40.6338C23.7607 40.6338 36.0657 43.7918 41.5707 43.5988L41.2617 42.9228C42.3937 35.4088 48.2707 29.6778 55.3697 29.6778C62.6407 29.6778 68.6317 35.6898 69.5537 43.4698H71.5717C71.5717 33.5508 64.3177 25.5098 55.3697 25.5098Z" fill="#0D0D0D"/>
<path d="M177.645 41.8428C176.112 33.6958 169.61 27.5718 161.804 27.5718C154.6 27.5718 148.506 32.7878 146.403 39.9978L81.8037 44.7498L145.621 45.1258V45.1348H147.675C148.752 37.5488 154.658 31.7398 161.804 31.7398C168.95 31.7398 174.858 37.5488 175.934 45.1348H177.989L177.987 45.0858L191.03 44.3288L177.645 41.8428Z" fill="#0D0D0D"/>
</g>
<path d="M2.2232 80V53.27H8.7572C11.0232 53.27 12.7832 53.567 14.0372 54.161C15.3132 54.733 16.2152 55.646 16.7432 56.9C17.2712 58.132 17.5352 59.716 17.5352 61.652V71.387C17.5352 73.367 17.2712 74.995 16.7432 76.271C16.2152 77.547 15.3242 78.493 14.0702 79.109C12.8382 79.703 11.1112 80 8.8892 80H2.2232ZM7.6682 76.205H8.8232C9.8352 76.205 10.5502 76.051 10.9682 75.743C11.4082 75.413 11.6832 74.94 11.7932 74.324C11.9032 73.686 11.9582 72.905 11.9582 71.981V60.959C11.9582 60.035 11.8812 59.298 11.7272 58.748C11.5952 58.176 11.3092 57.758 10.8692 57.494C10.4512 57.23 9.7582 57.098 8.7902 57.098H7.6682V76.205ZM25.4302 80.33C24.5062 80.33 23.7252 80.099 23.0872 79.637C22.4492 79.175 21.9652 78.592 21.6352 77.888C21.3052 77.184 21.1402 76.458 21.1402 75.71C21.1402 74.522 21.3712 73.521 21.8332 72.707C22.2952 71.893 22.9002 71.211 23.6482 70.661C24.3962 70.111 25.2322 69.638 26.1562 69.242C27.0802 68.846 28.0042 68.483 28.9282 68.153V66.371C28.9282 65.953 28.8952 65.59 28.8292 65.282C28.7632 64.974 28.6312 64.743 28.4332 64.589C28.2572 64.413 27.9932 64.325 27.6412 64.325C27.2892 64.325 27.0142 64.402 26.8162 64.556C26.6402 64.688 26.5082 64.897 26.4202 65.183C26.3322 65.447 26.2882 65.744 26.2882 66.074L26.1562 67.394L21.4702 67.196C21.5802 64.952 22.1632 63.291 23.2192 62.213C24.2972 61.135 25.9142 60.596 28.0702 60.596C30.0062 60.596 31.4362 61.135 32.3602 62.213C33.2842 63.269 33.7462 64.666 33.7462 66.404V75.281C33.7462 76.029 33.7572 76.7 33.7792 77.294C33.8232 77.866 33.8672 78.383 33.9112 78.845C33.9772 79.285 34.0322 79.67 34.0762 80H29.5882C29.5222 79.516 29.4452 78.988 29.3572 78.416C29.2692 77.844 29.2032 77.459 29.1592 77.261C28.9392 78.053 28.5212 78.768 27.9052 79.406C27.2892 80.022 26.4642 80.33 25.4302 80.33ZM27.2452 76.799C27.4872 76.799 27.7072 76.744 27.9052 76.634C28.1252 76.524 28.3232 76.381 28.4992 76.205C28.6752 76.029 28.8182 75.864 28.9282 75.71V70.463C28.4662 70.749 28.0372 71.035 27.6412 71.321C27.2452 71.585 26.9042 71.882 26.6182 72.212C26.3322 72.542 26.1122 72.905 25.9582 73.301C25.8042 73.697 25.7272 74.148 25.7272 74.654C25.7272 75.314 25.8592 75.842 26.1232 76.238C26.3872 76.612 26.7612 76.799 27.2452 76.799ZM38.3074 80V53.27H43.1254V68.318L47.3164 60.926H52.7944L48.2074 68.681L52.7284 80H47.4154L44.4124 70.793L43.1254 72.74V80H38.3074ZM59.1688 80.33C58.2448 80.33 57.4638 80.099 56.8258 79.637C56.1878 79.175 55.7038 78.592 55.3738 77.888C55.0438 77.184 54.8788 76.458 54.8788 75.71C54.8788 74.522 55.1098 73.521 55.5718 72.707C56.0338 71.893 56.6388 71.211 57.3868 70.661C58.1348 70.111 58.9708 69.638 59.8948 69.242C60.8188 68.846 61.7428 68.483 62.6668 68.153V66.371C62.6668 65.953 62.6338 65.59 62.5678 65.282C62.5018 64.974 62.3698 64.743 62.1718 64.589C61.9958 64.413 61.7318 64.325 61.3798 64.325C61.0278 64.325 60.7528 64.402 60.5548 64.556C60.3788 64.688 60.2468 64.897 60.1588 65.183C60.0708 65.447 60.0268 65.744 60.0268 66.074L59.8948 67.394L55.2088 67.196C55.3188 64.952 55.9018 63.291 56.9578 62.213C58.0358 61.135 59.6528 60.596 61.8088 60.596C63.7448 60.596 65.1748 61.135 66.0988 62.213C67.0228 63.269 67.4848 64.666 67.4848 66.404V75.281C67.4848 76.029 67.4958 76.7 67.5178 77.294C67.5618 77.866 67.6058 78.383 67.6498 78.845C67.7158 79.285 67.7708 79.67 67.8148 80H63.3268C63.2608 79.516 63.1838 78.988 63.0958 78.416C63.0078 77.844 62.9418 77.459 62.8978 77.261C62.6778 78.053 62.2598 78.768 61.6438 79.406C61.0278 80.022 60.2028 80.33 59.1688 80.33ZM60.9838 76.799C61.2258 76.799 61.4458 76.744 61.6438 76.634C61.8638 76.524 62.0618 76.381 62.2378 76.205C62.4138 76.029 62.5568 75.864 62.6668 75.71V70.463C62.2048 70.749 61.7758 71.035 61.3798 71.321C60.9838 71.585 60.6428 71.882 60.3568 72.212C60.0708 72.542 59.8508 72.905 59.6968 73.301C59.5428 73.697 59.4658 74.148 59.4658 74.654C59.4658 75.314 59.5978 75.842 59.8618 76.238C60.1258 76.612 60.4998 76.799 60.9838 76.799ZM72.112 80V60.926H77.095V63.995C77.733 62.873 78.36 62.048 78.976 61.52C79.614 60.97 80.362 60.695 81.22 60.695C81.374 60.695 81.506 60.706 81.616 60.728C81.748 60.728 81.869 60.75 81.979 60.794V65.81C81.737 65.7 81.462 65.612 81.154 65.546C80.846 65.458 80.527 65.414 80.197 65.414C79.581 65.414 79.02 65.579 78.514 65.909C78.008 66.217 77.535 66.668 77.095 67.262V80H72.112ZM95.4469 80V53.27H107.096V57.032H100.892V64.127H105.677V67.922H100.892V76.304H107.162V80H95.4469ZM111.171 80V53.27H116.154V80H111.171ZM121.027 80V60.926H126.01V80H121.027ZM120.994 57.791V54.062H126.01V57.791H120.994ZM136.531 80.198C135.189 80.198 134.144 80 133.396 79.604C132.67 79.186 132.164 78.592 131.878 77.822C131.592 77.052 131.449 76.117 131.449 75.017V64.193H129.568V60.926H131.449V55.151H136.465V60.926H139.27V64.193H136.465V74.555C136.465 75.149 136.619 75.578 136.927 75.842C137.235 76.084 137.653 76.205 138.181 76.205C138.445 76.205 138.698 76.194 138.94 76.172C139.182 76.128 139.402 76.095 139.6 76.073V79.967C139.27 80.011 138.819 80.055 138.247 80.099C137.697 80.165 137.125 80.198 136.531 80.198ZM149.362 80.33C147.954 80.33 146.777 80.077 145.831 79.571C144.885 79.043 144.17 78.284 143.686 77.294C143.202 76.282 142.96 75.072 142.96 73.664V67.262C142.96 65.81 143.202 64.6 143.686 63.632C144.17 62.642 144.896 61.894 145.864 61.388C146.832 60.86 147.998 60.596 149.362 60.596C150.814 60.596 151.991 60.86 152.893 61.388C153.795 61.916 154.455 62.686 154.873 63.698C155.313 64.71 155.533 65.942 155.533 67.394V70.727H147.877V74.423C147.877 74.973 147.932 75.424 148.042 75.776C148.174 76.128 148.35 76.381 148.57 76.535C148.79 76.667 149.065 76.733 149.395 76.733C149.703 76.733 149.967 76.667 150.187 76.535C150.429 76.381 150.605 76.15 150.715 75.842C150.825 75.534 150.88 75.127 150.88 74.621V72.806H155.5V74.39C155.5 76.326 154.972 77.8 153.916 78.812C152.86 79.824 151.342 80.33 149.362 80.33ZM147.877 68.351H150.88V66.47C150.88 65.92 150.825 65.48 150.715 65.15C150.605 64.798 150.429 64.556 150.187 64.424C149.967 64.27 149.681 64.193 149.329 64.193C148.999 64.193 148.724 64.27 148.504 64.424C148.306 64.578 148.152 64.853 148.042 65.249C147.932 65.623 147.877 66.162 147.877 66.866V68.351ZM173.516 80L168.434 53.27H173.153L176.321 71.75L179.291 53.27H184.208L179.126 80H173.516ZM193.632 80.198C192.29 80.198 191.245 80 190.497 79.604C189.771 79.186 189.265 78.592 188.979 77.822C188.693 77.052 188.55 76.117 188.55 75.017V64.193H186.669V60.926H188.55V55.151H193.566V60.926H196.371V64.193H193.566V74.555C193.566 75.149 193.72 75.578 194.028 75.842C194.336 76.084 194.754 76.205 195.282 76.205C195.546 76.205 195.799 76.194 196.041 76.172C196.283 76.128 196.503 76.095 196.701 76.073V79.967C196.371 80.011 195.92 80.055 195.348 80.099C194.798 80.165 194.226 80.198 193.632 80.198ZM206.429 80.33C205.021 80.33 203.844 80.066 202.898 79.538C201.952 78.988 201.237 78.218 200.753 77.228C200.291 76.238 200.06 75.061 200.06 73.697V67.262C200.06 65.832 200.291 64.633 200.753 63.665C201.237 62.675 201.952 61.916 202.898 61.388C203.844 60.86 205.021 60.596 206.429 60.596C207.793 60.596 208.937 60.816 209.861 61.256C210.785 61.674 211.467 62.312 211.907 63.17C212.369 64.028 212.6 65.106 212.6 66.404V68.219H207.848V66.272C207.848 65.7 207.793 65.26 207.683 64.952C207.595 64.622 207.441 64.391 207.221 64.259C207.023 64.127 206.759 64.061 206.429 64.061C206.099 64.061 205.835 64.149 205.637 64.325C205.439 64.479 205.296 64.754 205.208 65.15C205.12 65.524 205.076 66.052 205.076 66.734V74.225C205.076 75.259 205.186 75.963 205.406 76.337C205.648 76.689 206 76.865 206.462 76.865C206.814 76.865 207.089 76.788 207.287 76.634C207.485 76.48 207.628 76.238 207.716 75.908C207.804 75.578 207.848 75.16 207.848 74.654V72.344H212.6V74.423C212.6 75.699 212.369 76.788 211.907 77.69C211.445 78.57 210.752 79.23 209.828 79.67C208.904 80.11 207.771 80.33 206.429 80.33Z" fill="black"/>
<path d="M104.589 87.44H105.693V94.064H108.921V95H104.589V87.44ZM115.077 92.3H111.033V92.348C111.033 92.972 111.201 93.452 111.537 93.788C111.881 94.124 112.345 94.292 112.929 94.292C113.233 94.292 113.501 94.268 113.733 94.22C113.973 94.172 114.233 94.092 114.513 93.98L114.729 94.76C114.497 94.864 114.221 94.948 113.901 95.012C113.589 95.076 113.253 95.108 112.893 95.108C112.485 95.108 112.101 95.052 111.741 94.94C111.389 94.828 111.077 94.656 110.805 94.424C110.533 94.184 110.317 93.88 110.157 93.512C110.005 93.144 109.929 92.704 109.929 92.192C109.929 91.752 109.993 91.352 110.121 90.992C110.257 90.632 110.445 90.328 110.685 90.08C110.925 89.824 111.213 89.628 111.549 89.492C111.893 89.348 112.277 89.276 112.701 89.276C113.061 89.276 113.385 89.336 113.673 89.456C113.969 89.576 114.221 89.744 114.429 89.96C114.637 90.176 114.797 90.436 114.909 90.74C115.021 91.044 115.077 91.38 115.077 91.748V92.3ZM113.985 91.544C113.985 91.336 113.957 91.144 113.901 90.968C113.853 90.784 113.773 90.624 113.661 90.488C113.557 90.352 113.421 90.244 113.253 90.164C113.085 90.084 112.881 90.044 112.641 90.044C112.201 90.044 111.841 90.184 111.561 90.464C111.289 90.744 111.121 91.112 111.057 91.568L113.985 91.544ZM122.38 94.292C122.636 94.292 122.86 94.264 123.052 94.208C123.244 94.152 123.432 94.08 123.616 93.992L123.844 94.784C123.412 95 122.896 95.108 122.296 95.108C121.888 95.108 121.504 95.048 121.144 94.928C120.792 94.808 120.48 94.628 120.208 94.388C119.944 94.14 119.736 93.836 119.584 93.476C119.432 93.108 119.356 92.68 119.356 92.192C119.356 91.744 119.428 91.34 119.572 90.98C119.716 90.62 119.916 90.316 120.172 90.068C120.428 89.812 120.736 89.616 121.096 89.48C121.456 89.344 121.852 89.276 122.284 89.276C122.532 89.276 122.772 89.296 123.004 89.336C123.244 89.368 123.516 89.452 123.82 89.588L123.58 90.392C123.212 90.184 122.816 90.08 122.392 90.08C121.808 90.08 121.336 90.264 120.976 90.632C120.616 90.992 120.436 91.5 120.436 92.156C120.436 92.564 120.492 92.904 120.604 93.176C120.716 93.448 120.864 93.668 121.048 93.836C121.232 93.996 121.44 94.112 121.672 94.184C121.904 94.256 122.14 94.292 122.38 94.292ZM130.182 92.12C130.182 92.592 130.11 93.016 129.966 93.392C129.822 93.76 129.622 94.072 129.366 94.328C129.118 94.584 128.826 94.78 128.49 94.916C128.154 95.044 127.79 95.108 127.398 95.108C127.006 95.108 126.642 95.048 126.306 94.928C125.978 94.8 125.69 94.616 125.442 94.376C125.202 94.128 125.01 93.828 124.866 93.476C124.73 93.116 124.662 92.704 124.662 92.24C124.662 91.768 124.734 91.348 124.878 90.98C125.022 90.612 125.218 90.304 125.466 90.056C125.722 89.8 126.018 89.608 126.354 89.48C126.69 89.344 127.054 89.276 127.446 89.276C127.838 89.276 128.198 89.336 128.526 89.456C128.862 89.576 129.15 89.756 129.39 89.996C129.638 90.236 129.83 90.536 129.966 90.896C130.11 91.248 130.182 91.656 130.182 92.12ZM129.078 92.18C129.078 91.804 129.03 91.484 128.934 91.22C128.838 90.956 128.71 90.74 128.55 90.572C128.398 90.404 128.222 90.284 128.022 90.212C127.822 90.132 127.618 90.092 127.41 90.092C127.202 90.092 126.998 90.124 126.798 90.188C126.598 90.252 126.422 90.364 126.27 90.524C126.118 90.684 125.994 90.9 125.898 91.172C125.81 91.436 125.766 91.772 125.766 92.18C125.766 92.556 125.814 92.88 125.91 93.152C126.006 93.416 126.13 93.632 126.282 93.8C126.442 93.968 126.622 94.092 126.822 94.172C127.022 94.252 127.226 94.292 127.434 94.292C127.642 94.292 127.846 94.26 128.046 94.196C128.246 94.124 128.422 94.008 128.574 93.848C128.726 93.68 128.846 93.464 128.934 93.2C129.03 92.928 129.078 92.588 129.078 92.18ZM132.883 95H131.827V89.36H132.655L132.811 90.14C133.091 89.86 133.383 89.648 133.687 89.504C133.999 89.352 134.355 89.276 134.755 89.276C135.331 89.276 135.783 89.44 136.111 89.768C136.439 90.088 136.603 90.536 136.603 91.112V95H135.547V91.268C135.547 90.924 135.455 90.652 135.271 90.452C135.095 90.244 134.823 90.14 134.455 90.14C133.895 90.14 133.371 90.392 132.883 90.896V95ZM140.662 86.42C140.886 86.42 141.118 86.452 141.358 86.516C141.606 86.58 141.826 86.66 142.018 86.756L141.802 87.488C141.642 87.424 141.49 87.376 141.346 87.344C141.202 87.304 141.05 87.284 140.89 87.284C140.506 87.284 140.23 87.392 140.062 87.608C139.902 87.824 139.822 88.192 139.822 88.712V89.36H141.538V90.152H139.822V95H138.778V90.152H137.95V89.36H138.778V88.364C138.778 87.74 138.938 87.26 139.258 86.924C139.586 86.588 140.054 86.42 140.662 86.42ZM147.82 92.12C147.82 92.592 147.748 93.016 147.604 93.392C147.46 93.76 147.26 94.072 147.004 94.328C146.756 94.584 146.464 94.78 146.128 94.916C145.792 95.044 145.428 95.108 145.036 95.108C144.644 95.108 144.28 95.048 143.944 94.928C143.616 94.8 143.328 94.616 143.08 94.376C142.84 94.128 142.648 93.828 142.504 93.476C142.368 93.116 142.3 92.704 142.3 92.24C142.3 91.768 142.372 91.348 142.516 90.98C142.66 90.612 142.856 90.304 143.104 90.056C143.36 89.8 143.656 89.608 143.992 89.48C144.328 89.344 144.692 89.276 145.084 89.276C145.476 89.276 145.836 89.336 146.164 89.456C146.5 89.576 146.788 89.756 147.028 89.996C147.276 90.236 147.468 90.536 147.604 90.896C147.748 91.248 147.82 91.656 147.82 92.12ZM146.716 92.18C146.716 91.804 146.668 91.484 146.572 91.22C146.476 90.956 146.348 90.74 146.188 90.572C146.036 90.404 145.86 90.284 145.66 90.212C145.46 90.132 145.256 90.092 145.048 90.092C144.84 90.092 144.636 90.124 144.436 90.188C144.236 90.252 144.06 90.364 143.908 90.524C143.756 90.684 143.632 90.9 143.536 91.172C143.448 91.436 143.404 91.772 143.404 92.18C143.404 92.556 143.452 92.88 143.548 93.152C143.644 93.416 143.768 93.632 143.92 93.8C144.08 93.968 144.26 94.092 144.46 94.172C144.66 94.252 144.864 94.292 145.072 94.292C145.28 94.292 145.484 94.26 145.684 94.196C145.884 94.124 146.06 94.008 146.212 93.848C146.364 93.68 146.484 93.464 146.572 93.2C146.668 92.928 146.716 92.588 146.716 92.18ZM149.441 95V89.36H150.233L150.413 90.488C150.549 90.128 150.773 89.836 151.085 89.612C151.397 89.388 151.757 89.276 152.165 89.276C152.373 89.276 152.545 89.292 152.681 89.324C152.817 89.356 152.941 89.396 153.053 89.444L152.849 90.368C152.753 90.32 152.645 90.28 152.525 90.248C152.413 90.216 152.277 90.2 152.117 90.2C151.885 90.2 151.669 90.24 151.469 90.32C151.277 90.4 151.105 90.52 150.953 90.68C150.809 90.84 150.693 91.04 150.605 91.28C150.525 91.512 150.485 91.78 150.485 92.084V95H149.441ZM157.617 90.152H155.961V93.428C155.961 93.708 156.029 93.896 156.165 93.992C156.309 94.088 156.493 94.136 156.717 94.136C156.877 94.136 157.053 94.12 157.245 94.088C157.437 94.048 157.605 94.004 157.749 93.956L157.917 94.76C157.757 94.824 157.553 94.88 157.305 94.928C157.057 94.976 156.797 95 156.525 95C155.965 95 155.557 94.88 155.301 94.64C155.045 94.392 154.917 94.036 154.917 93.572V90.152H154.077V89.36H154.917V87.56H155.961V89.36H157.617V90.152ZM162.465 89.864C162.657 89.768 162.837 89.684 163.005 89.612C163.173 89.532 163.341 89.468 163.509 89.42C163.677 89.372 163.849 89.336 164.025 89.312C164.201 89.288 164.393 89.276 164.601 89.276C164.913 89.276 165.197 89.312 165.453 89.384C165.717 89.448 165.941 89.56 166.125 89.72C166.317 89.88 166.465 90.092 166.569 90.356C166.673 90.612 166.725 90.936 166.725 91.328V95H165.849L165.717 94.376H165.693C165.445 94.64 165.173 94.828 164.877 94.94C164.581 95.052 164.253 95.108 163.893 95.108C163.621 95.108 163.369 95.072 163.137 95C162.913 94.92 162.717 94.812 162.549 94.676C162.381 94.532 162.249 94.36 162.153 94.16C162.065 93.96 162.021 93.736 162.021 93.488C162.021 92.896 162.253 92.448 162.717 92.144C163.189 91.832 163.809 91.676 164.577 91.676H165.657V91.196C165.657 90.788 165.553 90.512 165.345 90.368C165.137 90.216 164.857 90.14 164.505 90.14C164.297 90.14 164.057 90.176 163.785 90.248C163.521 90.312 163.217 90.44 162.873 90.632L162.465 89.864ZM165.669 92.396L164.781 92.42C164.181 92.436 163.753 92.544 163.497 92.744C163.249 92.936 163.125 93.172 163.125 93.452C163.125 93.62 163.153 93.764 163.209 93.884C163.265 93.996 163.337 94.084 163.425 94.148C163.521 94.212 163.629 94.26 163.749 94.292C163.877 94.316 164.009 94.328 164.145 94.328C164.409 94.328 164.677 94.268 164.949 94.148C165.221 94.02 165.461 93.82 165.669 93.548V92.396ZM163.149 86.72H164.385L165.225 88.328H164.361L163.149 86.72ZM176.864 92.18C176.864 92.628 176.796 93.032 176.66 93.392C176.524 93.752 176.34 94.06 176.108 94.316C175.876 94.572 175.604 94.768 175.292 94.904C174.98 95.04 174.648 95.108 174.296 95.108C173.928 95.108 173.604 95.056 173.324 94.952C173.052 94.848 172.796 94.688 172.556 94.472H172.532L172.424 95H171.668V86.48H172.712V90.068C172.968 89.796 173.248 89.596 173.552 89.468C173.864 89.34 174.188 89.276 174.524 89.276C175.244 89.276 175.812 89.532 176.228 90.044C176.652 90.556 176.864 91.268 176.864 92.18ZM175.76 92.192C175.76 91.568 175.628 91.072 175.364 90.704C175.1 90.328 174.728 90.14 174.248 90.14C173.944 90.14 173.668 90.208 173.42 90.344C173.172 90.48 172.936 90.672 172.712 90.92V93.656C172.88 93.848 173.068 94.004 173.276 94.124C173.492 94.236 173.74 94.292 174.02 94.292C174.244 94.292 174.46 94.252 174.668 94.172C174.884 94.092 175.072 93.968 175.232 93.8C175.392 93.624 175.52 93.404 175.616 93.14C175.712 92.876 175.76 92.56 175.76 92.192ZM178.556 89.864C178.748 89.768 178.928 89.684 179.096 89.612C179.264 89.532 179.432 89.468 179.6 89.42C179.768 89.372 179.94 89.336 180.116 89.312C180.292 89.288 180.484 89.276 180.692 89.276C181.004 89.276 181.288 89.312 181.544 89.384C181.808 89.448 182.032 89.56 182.216 89.72C182.408 89.88 182.556 90.092 182.66 90.356C182.764 90.612 182.816 90.936 182.816 91.328V95H181.94L181.808 94.376H181.784C181.536 94.64 181.264 94.828 180.968 94.94C180.672 95.052 180.344 95.108 179.984 95.108C179.712 95.108 179.46 95.072 179.228 95C179.004 94.92 178.808 94.812 178.64 94.676C178.472 94.532 178.34 94.36 178.244 94.16C178.156 93.96 178.112 93.736 178.112 93.488C178.112 92.896 178.344 92.448 178.808 92.144C179.28 91.832 179.9 91.676 180.668 91.676H181.748V91.196C181.748 90.788 181.644 90.512 181.436 90.368C181.228 90.216 180.948 90.14 180.596 90.14C180.388 90.14 180.148 90.176 179.876 90.248C179.612 90.312 179.308 90.44 178.964 90.632L178.556 89.864ZM181.76 92.396L180.872 92.42C180.272 92.436 179.844 92.544 179.588 92.744C179.34 92.936 179.216 93.172 179.216 93.452C179.216 93.62 179.244 93.764 179.3 93.884C179.356 93.996 179.428 94.084 179.516 94.148C179.612 94.212 179.72 94.26 179.84 94.292C179.968 94.316 180.1 94.328 180.236 94.328C180.5 94.328 180.768 94.268 181.04 94.148C181.312 94.02 181.552 93.82 181.76 93.548V92.396ZM187.895 90.416C187.631 90.288 187.391 90.2 187.175 90.152C186.959 90.104 186.743 90.08 186.527 90.08C186.143 90.08 185.859 90.152 185.675 90.296C185.491 90.432 185.399 90.616 185.399 90.848C185.399 91.016 185.463 91.164 185.591 91.292C185.719 91.412 185.987 91.532 186.395 91.652L186.755 91.76C187.291 91.92 187.695 92.128 187.967 92.384C188.247 92.632 188.387 92.972 188.387 93.404C188.387 93.916 188.195 94.328 187.811 94.64C187.435 94.952 186.907 95.108 186.227 95.108C185.867 95.108 185.519 95.076 185.183 95.012C184.855 94.948 184.571 94.86 184.331 94.748L184.583 93.92C184.815 94.032 185.067 94.124 185.339 94.196C185.611 94.26 185.887 94.292 186.167 94.292C186.527 94.292 186.811 94.228 187.019 94.1C187.235 93.972 187.343 93.76 187.343 93.464C187.343 93.208 187.251 93.028 187.067 92.924C186.883 92.812 186.619 92.704 186.275 92.6L185.903 92.48C185.383 92.312 184.995 92.104 184.739 91.856C184.491 91.6 184.367 91.272 184.367 90.872C184.367 90.632 184.419 90.412 184.523 90.212C184.627 90.012 184.767 89.844 184.943 89.708C185.127 89.572 185.343 89.468 185.591 89.396C185.839 89.316 186.111 89.276 186.407 89.276C186.687 89.276 186.975 89.304 187.271 89.36C187.575 89.408 187.863 89.492 188.135 89.612L187.895 90.416ZM195.334 95.108C195.078 95.108 194.83 95.072 194.59 95C194.358 94.928 194.158 94.832 193.99 94.712V97.76H192.946V89.276H193.822L193.978 90.008C194.194 89.808 194.438 89.636 194.71 89.492C194.982 89.348 195.302 89.276 195.67 89.276C196.422 89.276 197.014 89.516 197.446 89.996C197.878 90.476 198.094 91.164 198.094 92.06C198.094 92.588 198.014 93.044 197.854 93.428C197.702 93.812 197.494 94.128 197.23 94.376C196.974 94.624 196.678 94.808 196.342 94.928C196.014 95.048 195.678 95.108 195.334 95.108ZM195.442 90.14C195.106 90.14 194.814 90.224 194.566 90.392C194.318 90.552 194.126 90.716 193.99 90.884V93.896C194.174 94.032 194.37 94.132 194.578 94.196C194.786 94.26 194.994 94.292 195.202 94.292C195.418 94.292 195.634 94.256 195.85 94.184C196.066 94.104 196.258 93.976 196.426 93.8C196.594 93.624 196.73 93.396 196.834 93.116C196.938 92.836 196.99 92.492 196.99 92.084C196.99 91.484 196.862 91.012 196.606 90.668C196.358 90.316 195.97 90.14 195.442 90.14ZM199.705 95V89.36H200.497L200.677 90.488C200.813 90.128 201.037 89.836 201.349 89.612C201.661 89.388 202.021 89.276 202.429 89.276C202.637 89.276 202.809 89.292 202.945 89.324C203.081 89.356 203.205 89.396 203.317 89.444L203.113 90.368C203.017 90.32 202.909 90.28 202.789 90.248C202.677 90.216 202.541 90.2 202.381 90.2C202.149 90.2 201.933 90.24 201.733 90.32C201.541 90.4 201.369 90.52 201.217 90.68C201.073 90.84 200.957 91.04 200.869 91.28C200.789 91.512 200.749 91.78 200.749 92.084V95H199.705ZM204.663 95V89.36H205.719V95H204.663ZM205.191 87.908C205.007 87.908 204.847 87.848 204.711 87.728C204.583 87.6 204.519 87.444 204.519 87.26C204.519 87.076 204.583 86.92 204.711 86.792C204.847 86.664 205.007 86.6 205.191 86.6C205.367 86.6 205.523 86.664 205.659 86.792C205.795 86.92 205.863 87.076 205.863 87.26C205.863 87.444 205.795 87.6 205.659 87.728C205.523 87.848 205.367 87.908 205.191 87.908ZM210.281 92.144L212.261 95H211.061L210.089 93.584L209.645 92.852L209.237 93.572L208.301 95H207.125L209.081 92.144L207.221 89.36H208.409L209.297 90.74L209.729 91.46L210.149 90.74L210.977 89.36H212.129L210.281 92.144Z" fill="#B38D38"/>
<path d="M1.33337 91.4861C1.3257 92.9589 2.51337 94.159 3.98611 94.1666C5.45885 94.1743 6.65896 92.9866 6.66663 91.5139C6.6743 90.0411 5.48663 88.841 4.01389 88.8334C2.54115 88.8257 1.34104 90.0134 1.33337 91.4861ZM93.9988 91.9687L89.0139 89.056L88.9838 94.8294L93.9988 91.9687ZM4 91.5L3.9974 92L89.4962 92.4453L89.4988 91.9453L89.5014 91.4453L4.0026 91L4 91.5Z" fill="black"/>
<defs>
<clipPath id="clip0_646_15">
<rect width="175" height="46" fill="white" transform="translate(19)"/>
</clipPath>
</defs>
</svg>
