<svg width="214" height="49" viewBox="0 0 214 49" fill="none" xmlns="http://www.w3.org/2000/svg">
<path d="M2.2232 30V3.27H8.7572C11.0232 3.27 12.7832 3.567 14.0372 4.161C15.3132 4.733 16.2152 5.646 16.7432 6.9C17.2712 8.132 17.5352 9.716 17.5352 11.652V21.387C17.5352 23.367 17.2712 24.995 16.7432 26.271C16.2152 27.547 15.3242 28.493 14.0702 29.109C12.8382 29.703 11.1112 30 8.8892 30H2.2232ZM7.6682 26.205H8.8232C9.8352 26.205 10.5502 26.051 10.9682 25.743C11.4082 25.413 11.6832 24.94 11.7932 24.324C11.9032 23.686 11.9582 22.905 11.9582 21.981V10.959C11.9582 10.035 11.8812 9.298 11.7272 8.748C11.5952 8.176 11.3092 7.758 10.8692 7.494C10.4512 7.23 9.7582 7.098 8.7902 7.098H7.6682V26.205ZM25.4302 30.33C24.5062 30.33 23.7252 30.099 23.0872 29.637C22.4492 29.175 21.9652 28.592 21.6352 27.888C21.3052 27.184 21.1402 26.458 21.1402 25.71C21.1402 24.522 21.3712 23.521 21.8332 22.707C22.2952 21.893 22.9002 21.211 23.6482 20.661C24.3962 20.111 25.2322 19.638 26.1562 19.242C27.0802 18.846 28.0042 18.483 28.9282 18.153V16.371C28.9282 15.953 28.8952 15.59 28.8292 15.282C28.7632 14.974 28.6312 14.743 28.4332 14.589C28.2572 14.413 27.9932 14.325 27.6412 14.325C27.2892 14.325 27.0142 14.402 26.8162 14.556C26.6402 14.688 26.5082 14.897 26.4202 15.183C26.3322 15.447 26.2882 15.744 26.2882 16.074L26.1562 17.394L21.4702 17.196C21.5802 14.952 22.1632 13.291 23.2192 12.213C24.2972 11.135 25.9142 10.596 28.0702 10.596C30.0062 10.596 31.4362 11.135 32.3602 12.213C33.2842 13.269 33.7462 14.666 33.7462 16.404V25.281C33.7462 26.029 33.7572 26.7 33.7792 27.294C33.8232 27.866 33.8672 28.383 33.9112 28.845C33.9772 29.285 34.0322 29.67 34.0762 30H29.5882C29.5222 29.516 29.4452 28.988 29.3572 28.416C29.2692 27.844 29.2032 27.459 29.1592 27.261C28.9392 28.053 28.5212 28.768 27.9052 29.406C27.2892 30.022 26.4642 30.33 25.4302 30.33ZM27.2452 26.799C27.4872 26.799 27.7072 26.744 27.9052 26.634C28.1252 26.524 28.3232 26.381 28.4992 26.205C28.6752 26.029 28.8182 25.864 28.9282 25.71V20.463C28.4662 20.749 28.0372 21.035 27.6412 21.321C27.2452 21.585 26.9042 21.882 26.6182 22.212C26.3322 22.542 26.1122 22.905 25.9582 23.301C25.8042 23.697 25.7272 24.148 25.7272 24.654C25.7272 25.314 25.8592 25.842 26.1232 26.238C26.3872 26.612 26.7612 26.799 27.2452 26.799ZM38.3074 30V3.27H43.1254V18.318L47.3164 10.926H52.7944L48.2074 18.681L52.7284 30H47.4154L44.4124 20.793L43.1254 22.74V30H38.3074ZM59.1688 30.33C58.2448 30.33 57.4638 30.099 56.8258 29.637C56.1878 29.175 55.7038 28.592 55.3738 27.888C55.0438 27.184 54.8788 26.458 54.8788 25.71C54.8788 24.522 55.1098 23.521 55.5718 22.707C56.0338 21.893 56.6388 21.211 57.3868 20.661C58.1348 20.111 58.9708 19.638 59.8948 19.242C60.8188 18.846 61.7428 18.483 62.6668 18.153V16.371C62.6668 15.953 62.6338 15.59 62.5678 15.282C62.5018 14.974 62.3698 14.743 62.1718 14.589C61.9958 14.413 61.7318 14.325 61.3798 14.325C61.0278 14.325 60.7528 14.402 60.5548 14.556C60.3788 14.688 60.2468 14.897 60.1588 15.183C60.0708 15.447 60.0268 15.744 60.0268 16.074L59.8948 17.394L55.2088 17.196C55.3188 14.952 55.9018 13.291 56.9578 12.213C58.0358 11.135 59.6528 10.596 61.8088 10.596C63.7448 10.596 65.1748 11.135 66.0988 12.213C67.0228 13.269 67.4848 14.666 67.4848 16.404V25.281C67.4848 26.029 67.4958 26.7 67.5178 27.294C67.5618 27.866 67.6058 28.383 67.6498 28.845C67.7158 29.285 67.7708 29.67 67.8148 30H63.3268C63.2608 29.516 63.1838 28.988 63.0958 28.416C63.0078 27.844 62.9418 27.459 62.8978 27.261C62.6778 28.053 62.2598 28.768 61.6438 29.406C61.0278 30.022 60.2028 30.33 59.1688 30.33ZM60.9838 26.799C61.2258 26.799 61.4458 26.744 61.6438 26.634C61.8638 26.524 62.0618 26.381 62.2378 26.205C62.4138 26.029 62.5568 25.864 62.6668 25.71V20.463C62.2048 20.749 61.7758 21.035 61.3798 21.321C60.9838 21.585 60.6428 21.882 60.3568 22.212C60.0708 22.542 59.8508 22.905 59.6968 23.301C59.5428 23.697 59.4658 24.148 59.4658 24.654C59.4658 25.314 59.5978 25.842 59.8618 26.238C60.1258 26.612 60.4998 26.799 60.9838 26.799ZM72.112 30V10.926H77.095V13.995C77.733 12.873 78.36 12.048 78.976 11.52C79.614 10.97 80.362 10.695 81.22 10.695C81.374 10.695 81.506 10.706 81.616 10.728C81.748 10.728 81.869 10.75 81.979 10.794V15.81C81.737 15.7 81.462 15.612 81.154 15.546C80.846 15.458 80.527 15.414 80.197 15.414C79.581 15.414 79.02 15.579 78.514 15.909C78.008 16.217 77.535 16.668 77.095 17.262V30H72.112ZM95.4469 30V3.27H107.096V7.032H100.892V14.127H105.677V17.922H100.892V26.304H107.162V30H95.4469ZM111.171 30V3.27H116.154V30H111.171ZM121.027 30V10.926H126.01V30H121.027ZM120.994 7.791V4.062H126.01V7.791H120.994ZM136.531 30.198C135.189 30.198 134.144 30 133.396 29.604C132.67 29.186 132.164 28.592 131.878 27.822C131.592 27.052 131.449 26.117 131.449 25.017V14.193H129.568V10.926H131.449V5.151H136.465V10.926H139.27V14.193H136.465V24.555C136.465 25.149 136.619 25.578 136.927 25.842C137.235 26.084 137.653 26.205 138.181 26.205C138.445 26.205 138.698 26.194 138.94 26.172C139.182 26.128 139.402 26.095 139.6 26.073V29.967C139.27 30.011 138.819 30.055 138.247 30.099C137.697 30.165 137.125 30.198 136.531 30.198ZM149.362 30.33C147.954 30.33 146.777 30.077 145.831 29.571C144.885 29.043 144.17 28.284 143.686 27.294C143.202 26.282 142.96 25.072 142.96 23.664V17.262C142.96 15.81 143.202 14.6 143.686 13.632C144.17 12.642 144.896 11.894 145.864 11.388C146.832 10.86 147.998 10.596 149.362 10.596C150.814 10.596 151.991 10.86 152.893 11.388C153.795 11.916 154.455 12.686 154.873 13.698C155.313 14.71 155.533 15.942 155.533 17.394V20.727H147.877V24.423C147.877 24.973 147.932 25.424 148.042 25.776C148.174 26.128 148.35 26.381 148.57 26.535C148.79 26.667 149.065 26.733 149.395 26.733C149.703 26.733 149.967 26.667 150.187 26.535C150.429 26.381 150.605 26.15 150.715 25.842C150.825 25.534 150.88 25.127 150.88 24.621V22.806H155.5V24.39C155.5 26.326 154.972 27.8 153.916 28.812C152.86 29.824 151.342 30.33 149.362 30.33ZM147.877 18.351H150.88V16.47C150.88 15.92 150.825 15.48 150.715 15.15C150.605 14.798 150.429 14.556 150.187 14.424C149.967 14.27 149.681 14.193 149.329 14.193C148.999 14.193 148.724 14.27 148.504 14.424C148.306 14.578 148.152 14.853 148.042 15.249C147.932 15.623 147.877 16.162 147.877 16.866V18.351ZM173.516 30L168.434 3.27H173.153L176.321 21.75L179.291 3.27H184.208L179.126 30H173.516ZM193.632 30.198C192.29 30.198 191.245 30 190.497 29.604C189.771 29.186 189.265 28.592 188.979 27.822C188.693 27.052 188.55 26.117 188.55 25.017V14.193H186.669V10.926H188.55V5.151H193.566V10.926H196.371V14.193H193.566V24.555C193.566 25.149 193.72 25.578 194.028 25.842C194.336 26.084 194.754 26.205 195.282 26.205C195.546 26.205 195.799 26.194 196.041 26.172C196.283 26.128 196.503 26.095 196.701 26.073V29.967C196.371 30.011 195.92 30.055 195.348 30.099C194.798 30.165 194.226 30.198 193.632 30.198ZM206.429 30.33C205.021 30.33 203.844 30.066 202.898 29.538C201.952 28.988 201.237 28.218 200.753 27.228C200.291 26.238 200.06 25.061 200.06 23.697V17.262C200.06 15.832 200.291 14.633 200.753 13.665C201.237 12.675 201.952 11.916 202.898 11.388C203.844 10.86 205.021 10.596 206.429 10.596C207.793 10.596 208.937 10.816 209.861 11.256C210.785 11.674 211.467 12.312 211.907 13.17C212.369 14.028 212.6 15.106 212.6 16.404V18.219H207.848V16.272C207.848 15.7 207.793 15.26 207.683 14.952C207.595 14.622 207.441 14.391 207.221 14.259C207.023 14.127 206.759 14.061 206.429 14.061C206.099 14.061 205.835 14.149 205.637 14.325C205.439 14.479 205.296 14.754 205.208 15.15C205.12 15.524 205.076 16.052 205.076 16.734V24.225C205.076 25.259 205.186 25.963 205.406 26.337C205.648 26.689 206 26.865 206.462 26.865C206.814 26.865 207.089 26.788 207.287 26.634C207.485 26.48 207.628 26.238 207.716 25.908C207.804 25.578 207.848 25.16 207.848 24.654V22.344H212.6V24.423C212.6 25.699 212.369 26.788 211.907 27.69C211.445 28.57 210.752 29.23 209.828 29.67C208.904 30.11 207.771 30.33 206.429 30.33Z" fill="white"/>
<path d="M104.589 37.44H105.693V44.064H108.921V45H104.589V37.44ZM115.077 42.3H111.033V42.348C111.033 42.972 111.201 43.452 111.537 43.788C111.881 44.124 112.345 44.292 112.929 44.292C113.233 44.292 113.501 44.268 113.733 44.22C113.973 44.172 114.233 44.092 114.513 43.98L114.729 44.76C114.497 44.864 114.221 44.948 113.901 45.012C113.589 45.076 113.253 45.108 112.893 45.108C112.485 45.108 112.101 45.052 111.741 44.94C111.389 44.828 111.077 44.656 110.805 44.424C110.533 44.184 110.317 43.88 110.157 43.512C110.005 43.144 109.929 42.704 109.929 42.192C109.929 41.752 109.993 41.352 110.121 40.992C110.257 40.632 110.445 40.328 110.685 40.08C110.925 39.824 111.213 39.628 111.549 39.492C111.893 39.348 112.277 39.276 112.701 39.276C113.061 39.276 113.385 39.336 113.673 39.456C113.969 39.576 114.221 39.744 114.429 39.96C114.637 40.176 114.797 40.436 114.909 40.74C115.021 41.044 115.077 41.38 115.077 41.748V42.3ZM113.985 41.544C113.985 41.336 113.957 41.144 113.901 40.968C113.853 40.784 113.773 40.624 113.661 40.488C113.557 40.352 113.421 40.244 113.253 40.164C113.085 40.084 112.881 40.044 112.641 40.044C112.201 40.044 111.841 40.184 111.561 40.464C111.289 40.744 111.121 41.112 111.057 41.568L113.985 41.544ZM122.38 44.292C122.636 44.292 122.86 44.264 123.052 44.208C123.244 44.152 123.432 44.08 123.616 43.992L123.844 44.784C123.412 45 122.896 45.108 122.296 45.108C121.888 45.108 121.504 45.048 121.144 44.928C120.792 44.808 120.48 44.628 120.208 44.388C119.944 44.14 119.736 43.836 119.584 43.476C119.432 43.108 119.356 42.68 119.356 42.192C119.356 41.744 119.428 41.34 119.572 40.98C119.716 40.62 119.916 40.316 120.172 40.068C120.428 39.812 120.736 39.616 121.096 39.48C121.456 39.344 121.852 39.276 122.284 39.276C122.532 39.276 122.772 39.296 123.004 39.336C123.244 39.368 123.516 39.452 123.82 39.588L123.58 40.392C123.212 40.184 122.816 40.08 122.392 40.08C121.808 40.08 121.336 40.264 120.976 40.632C120.616 40.992 120.436 41.5 120.436 42.156C120.436 42.564 120.492 42.904 120.604 43.176C120.716 43.448 120.864 43.668 121.048 43.836C121.232 43.996 121.44 44.112 121.672 44.184C121.904 44.256 122.14 44.292 122.38 44.292ZM130.182 42.12C130.182 42.592 130.11 43.016 129.966 43.392C129.822 43.76 129.622 44.072 129.366 44.328C129.118 44.584 128.826 44.78 128.49 44.916C128.154 45.044 127.79 45.108 127.398 45.108C127.006 45.108 126.642 45.048 126.306 44.928C125.978 44.8 125.69 44.616 125.442 44.376C125.202 44.128 125.01 43.828 124.866 43.476C124.73 43.116 124.662 42.704 124.662 42.24C124.662 41.768 124.734 41.348 124.878 40.98C125.022 40.612 125.218 40.304 125.466 40.056C125.722 39.8 126.018 39.608 126.354 39.48C126.69 39.344 127.054 39.276 127.446 39.276C127.838 39.276 128.198 39.336 128.526 39.456C128.862 39.576 129.15 39.756 129.39 39.996C129.638 40.236 129.83 40.536 129.966 40.896C130.11 41.248 130.182 41.656 130.182 42.12ZM129.078 42.18C129.078 41.804 129.03 41.484 128.934 41.22C128.838 40.956 128.71 40.74 128.55 40.572C128.398 40.404 128.222 40.284 128.022 40.212C127.822 40.132 127.618 40.092 127.41 40.092C127.202 40.092 126.998 40.124 126.798 40.188C126.598 40.252 126.422 40.364 126.27 40.524C126.118 40.684 125.994 40.9 125.898 41.172C125.81 41.436 125.766 41.772 125.766 42.18C125.766 42.556 125.814 42.88 125.91 43.152C126.006 43.416 126.13 43.632 126.282 43.8C126.442 43.968 126.622 44.092 126.822 44.172C127.022 44.252 127.226 44.292 127.434 44.292C127.642 44.292 127.846 44.26 128.046 44.196C128.246 44.124 128.422 44.008 128.574 43.848C128.726 43.68 128.846 43.464 128.934 43.2C129.03 42.928 129.078 42.588 129.078 42.18ZM132.883 45H131.827V39.36H132.655L132.811 40.14C133.091 39.86 133.383 39.648 133.687 39.504C133.999 39.352 134.355 39.276 134.755 39.276C135.331 39.276 135.783 39.44 136.111 39.768C136.439 40.088 136.603 40.536 136.603 41.112V45H135.547V41.268C135.547 40.924 135.455 40.652 135.271 40.452C135.095 40.244 134.823 40.14 134.455 40.14C133.895 40.14 133.371 40.392 132.883 40.896V45ZM140.662 36.42C140.886 36.42 141.118 36.452 141.358 36.516C141.606 36.58 141.826 36.66 142.018 36.756L141.802 37.488C141.642 37.424 141.49 37.376 141.346 37.344C141.202 37.304 141.05 37.284 140.89 37.284C140.506 37.284 140.23 37.392 140.062 37.608C139.902 37.824 139.822 38.192 139.822 38.712V39.36H141.538V40.152H139.822V45H138.778V40.152H137.95V39.36H138.778V38.364C138.778 37.74 138.938 37.26 139.258 36.924C139.586 36.588 140.054 36.42 140.662 36.42ZM147.82 42.12C147.82 42.592 147.748 43.016 147.604 43.392C147.46 43.76 147.26 44.072 147.004 44.328C146.756 44.584 146.464 44.78 146.128 44.916C145.792 45.044 145.428 45.108 145.036 45.108C144.644 45.108 144.28 45.048 143.944 44.928C143.616 44.8 143.328 44.616 143.08 44.376C142.84 44.128 142.648 43.828 142.504 43.476C142.368 43.116 142.3 42.704 142.3 42.24C142.3 41.768 142.372 41.348 142.516 40.98C142.66 40.612 142.856 40.304 143.104 40.056C143.36 39.8 143.656 39.608 143.992 39.48C144.328 39.344 144.692 39.276 145.084 39.276C145.476 39.276 145.836 39.336 146.164 39.456C146.5 39.576 146.788 39.756 147.028 39.996C147.276 40.236 147.468 40.536 147.604 40.896C147.748 41.248 147.82 41.656 147.82 42.12ZM146.716 42.18C146.716 41.804 146.668 41.484 146.572 41.22C146.476 40.956 146.348 40.74 146.188 40.572C146.036 40.404 145.86 40.284 145.66 40.212C145.46 40.132 145.256 40.092 145.048 40.092C144.84 40.092 144.636 40.124 144.436 40.188C144.236 40.252 144.06 40.364 143.908 40.524C143.756 40.684 143.632 40.9 143.536 41.172C143.448 41.436 143.404 41.772 143.404 42.18C143.404 42.556 143.452 42.88 143.548 43.152C143.644 43.416 143.768 43.632 143.92 43.8C144.08 43.968 144.26 44.092 144.46 44.172C144.66 44.252 144.864 44.292 145.072 44.292C145.28 44.292 145.484 44.26 145.684 44.196C145.884 44.124 146.06 44.008 146.212 43.848C146.364 43.68 146.484 43.464 146.572 43.2C146.668 42.928 146.716 42.588 146.716 42.18ZM149.441 45V39.36H150.233L150.413 40.488C150.549 40.128 150.773 39.836 151.085 39.612C151.397 39.388 151.757 39.276 152.165 39.276C152.373 39.276 152.545 39.292 152.681 39.324C152.817 39.356 152.941 39.396 153.053 39.444L152.849 40.368C152.753 40.32 152.645 40.28 152.525 40.248C152.413 40.216 152.277 40.2 152.117 40.2C151.885 40.2 151.669 40.24 151.469 40.32C151.277 40.4 151.105 40.52 150.953 40.68C150.809 40.84 150.693 41.04 150.605 41.28C150.525 41.512 150.485 41.78 150.485 42.084V45H149.441ZM157.617 40.152H155.961V43.428C155.961 43.708 156.029 43.896 156.165 43.992C156.309 44.088 156.493 44.136 156.717 44.136C156.877 44.136 157.053 44.12 157.245 44.088C157.437 44.048 157.605 44.004 157.749 43.956L157.917 44.76C157.757 44.824 157.553 44.88 157.305 44.928C157.057 44.976 156.797 45 156.525 45C155.965 45 155.557 44.88 155.301 44.64C155.045 44.392 154.917 44.036 154.917 43.572V40.152H154.077V39.36H154.917V37.56H155.961V39.36H157.617V40.152ZM162.465 39.864C162.657 39.768 162.837 39.684 163.005 39.612C163.173 39.532 163.341 39.468 163.509 39.42C163.677 39.372 163.849 39.336 164.025 39.312C164.201 39.288 164.393 39.276 164.601 39.276C164.913 39.276 165.197 39.312 165.453 39.384C165.717 39.448 165.941 39.56 166.125 39.72C166.317 39.88 166.465 40.092 166.569 40.356C166.673 40.612 166.725 40.936 166.725 41.328V45H165.849L165.717 44.376H165.693C165.445 44.64 165.173 44.828 164.877 44.94C164.581 45.052 164.253 45.108 163.893 45.108C163.621 45.108 163.369 45.072 163.137 45C162.913 44.92 162.717 44.812 162.549 44.676C162.381 44.532 162.249 44.36 162.153 44.16C162.065 43.96 162.021 43.736 162.021 43.488C162.021 42.896 162.253 42.448 162.717 42.144C163.189 41.832 163.809 41.676 164.577 41.676H165.657V41.196C165.657 40.788 165.553 40.512 165.345 40.368C165.137 40.216 164.857 40.14 164.505 40.14C164.297 40.14 164.057 40.176 163.785 40.248C163.521 40.312 163.217 40.44 162.873 40.632L162.465 39.864ZM165.669 42.396L164.781 42.42C164.181 42.436 163.753 42.544 163.497 42.744C163.249 42.936 163.125 43.172 163.125 43.452C163.125 43.62 163.153 43.764 163.209 43.884C163.265 43.996 163.337 44.084 163.425 44.148C163.521 44.212 163.629 44.26 163.749 44.292C163.877 44.316 164.009 44.328 164.145 44.328C164.409 44.328 164.677 44.268 164.949 44.148C165.221 44.02 165.461 43.82 165.669 43.548V42.396ZM163.149 36.72H164.385L165.225 38.328H164.361L163.149 36.72ZM176.864 42.18C176.864 42.628 176.796 43.032 176.66 43.392C176.524 43.752 176.34 44.06 176.108 44.316C175.876 44.572 175.604 44.768 175.292 44.904C174.98 45.04 174.648 45.108 174.296 45.108C173.928 45.108 173.604 45.056 173.324 44.952C173.052 44.848 172.796 44.688 172.556 44.472H172.532L172.424 45H171.668V36.48H172.712V40.068C172.968 39.796 173.248 39.596 173.552 39.468C173.864 39.34 174.188 39.276 174.524 39.276C175.244 39.276 175.812 39.532 176.228 40.044C176.652 40.556 176.864 41.268 176.864 42.18ZM175.76 42.192C175.76 41.568 175.628 41.072 175.364 40.704C175.1 40.328 174.728 40.14 174.248 40.14C173.944 40.14 173.668 40.208 173.42 40.344C173.172 40.48 172.936 40.672 172.712 40.92V43.656C172.88 43.848 173.068 44.004 173.276 44.124C173.492 44.236 173.74 44.292 174.02 44.292C174.244 44.292 174.46 44.252 174.668 44.172C174.884 44.092 175.072 43.968 175.232 43.8C175.392 43.624 175.52 43.404 175.616 43.14C175.712 42.876 175.76 42.56 175.76 42.192ZM178.556 39.864C178.748 39.768 178.928 39.684 179.096 39.612C179.264 39.532 179.432 39.468 179.6 39.42C179.768 39.372 179.94 39.336 180.116 39.312C180.292 39.288 180.484 39.276 180.692 39.276C181.004 39.276 181.288 39.312 181.544 39.384C181.808 39.448 182.032 39.56 182.216 39.72C182.408 39.88 182.556 40.092 182.66 40.356C182.764 40.612 182.816 40.936 182.816 41.328V45H181.94L181.808 44.376H181.784C181.536 44.64 181.264 44.828 180.968 44.94C180.672 45.052 180.344 45.108 179.984 45.108C179.712 45.108 179.46 45.072 179.228 45C179.004 44.92 178.808 44.812 178.64 44.676C178.472 44.532 178.34 44.36 178.244 44.16C178.156 43.96 178.112 43.736 178.112 43.488C178.112 42.896 178.344 42.448 178.808 42.144C179.28 41.832 179.9 41.676 180.668 41.676H181.748V41.196C181.748 40.788 181.644 40.512 181.436 40.368C181.228 40.216 180.948 40.14 180.596 40.14C180.388 40.14 180.148 40.176 179.876 40.248C179.612 40.312 179.308 40.44 178.964 40.632L178.556 39.864ZM181.76 42.396L180.872 42.42C180.272 42.436 179.844 42.544 179.588 42.744C179.34 42.936 179.216 43.172 179.216 43.452C179.216 43.62 179.244 43.764 179.3 43.884C179.356 43.996 179.428 44.084 179.516 44.148C179.612 44.212 179.72 44.26 179.84 44.292C179.968 44.316 180.1 44.328 180.236 44.328C180.5 44.328 180.768 44.268 181.04 44.148C181.312 44.02 181.552 43.82 181.76 43.548V42.396ZM187.895 40.416C187.631 40.288 187.391 40.2 187.175 40.152C186.959 40.104 186.743 40.08 186.527 40.08C186.143 40.08 185.859 40.152 185.675 40.296C185.491 40.432 185.399 40.616 185.399 40.848C185.399 41.016 185.463 41.164 185.591 41.292C185.719 41.412 185.987 41.532 186.395 41.652L186.755 41.76C187.291 41.92 187.695 42.128 187.967 42.384C188.247 42.632 188.387 42.972 188.387 43.404C188.387 43.916 188.195 44.328 187.811 44.64C187.435 44.952 186.907 45.108 186.227 45.108C185.867 45.108 185.519 45.076 185.183 45.012C184.855 44.948 184.571 44.86 184.331 44.748L184.583 43.92C184.815 44.032 185.067 44.124 185.339 44.196C185.611 44.26 185.887 44.292 186.167 44.292C186.527 44.292 186.811 44.228 187.019 44.1C187.235 43.972 187.343 43.76 187.343 43.464C187.343 43.208 187.251 43.028 187.067 42.924C186.883 42.812 186.619 42.704 186.275 42.6L185.903 42.48C185.383 42.312 184.995 42.104 184.739 41.856C184.491 41.6 184.367 41.272 184.367 40.872C184.367 40.632 184.419 40.412 184.523 40.212C184.627 40.012 184.767 39.844 184.943 39.708C185.127 39.572 185.343 39.468 185.591 39.396C185.839 39.316 186.111 39.276 186.407 39.276C186.687 39.276 186.975 39.304 187.271 39.36C187.575 39.408 187.863 39.492 188.135 39.612L187.895 40.416ZM195.334 45.108C195.078 45.108 194.83 45.072 194.59 45C194.358 44.928 194.158 44.832 193.99 44.712V47.76H192.946V39.276H193.822L193.978 40.008C194.194 39.808 194.438 39.636 194.71 39.492C194.982 39.348 195.302 39.276 195.67 39.276C196.422 39.276 197.014 39.516 197.446 39.996C197.878 40.476 198.094 41.164 198.094 42.06C198.094 42.588 198.014 43.044 197.854 43.428C197.702 43.812 197.494 44.128 197.23 44.376C196.974 44.624 196.678 44.808 196.342 44.928C196.014 45.048 195.678 45.108 195.334 45.108ZM195.442 40.14C195.106 40.14 194.814 40.224 194.566 40.392C194.318 40.552 194.126 40.716 193.99 40.884V43.896C194.174 44.032 194.37 44.132 194.578 44.196C194.786 44.26 194.994 44.292 195.202 44.292C195.418 44.292 195.634 44.256 195.85 44.184C196.066 44.104 196.258 43.976 196.426 43.8C196.594 43.624 196.73 43.396 196.834 43.116C196.938 42.836 196.99 42.492 196.99 42.084C196.99 41.484 196.862 41.012 196.606 40.668C196.358 40.316 195.97 40.14 195.442 40.14ZM199.705 45V39.36H200.497L200.677 40.488C200.813 40.128 201.037 39.836 201.349 39.612C201.661 39.388 202.021 39.276 202.429 39.276C202.637 39.276 202.809 39.292 202.945 39.324C203.081 39.356 203.205 39.396 203.317 39.444L203.113 40.368C203.017 40.32 202.909 40.28 202.789 40.248C202.677 40.216 202.541 40.2 202.381 40.2C202.149 40.2 201.933 40.24 201.733 40.32C201.541 40.4 201.369 40.52 201.217 40.68C201.073 40.84 200.957 41.04 200.869 41.28C200.789 41.512 200.749 41.78 200.749 42.084V45H199.705ZM204.663 45V39.36H205.719V45H204.663ZM205.191 37.908C205.007 37.908 204.847 37.848 204.711 37.728C204.583 37.6 204.519 37.444 204.519 37.26C204.519 37.076 204.583 36.92 204.711 36.792C204.847 36.664 205.007 36.6 205.191 36.6C205.367 36.6 205.523 36.664 205.659 36.792C205.795 36.92 205.863 37.076 205.863 37.26C205.863 37.444 205.795 37.6 205.659 37.728C205.523 37.848 205.367 37.908 205.191 37.908ZM210.281 42.144L212.261 45H211.061L210.089 43.584L209.645 42.852L209.237 43.572L208.301 45H207.125L209.081 42.144L207.221 39.36H208.409L209.297 40.74L209.729 41.46L210.149 40.74L210.977 39.36H212.129L210.281 42.144Z" fill="#B38D38"/>
<path d="M1.33337 41.4861C1.3257 42.9589 2.51337 44.159 3.98611 44.1666C5.45885 44.1743 6.65896 42.9866 6.66663 41.5139C6.6743 40.0411 5.48663 38.841 4.01389 38.8334C2.54115 38.8257 1.34104 40.0134 1.33337 41.4861ZM93.9988 41.9687L89.0139 39.056L88.9838 44.8294L93.9988 41.9687ZM4 41.5L3.9974 42L89.4962 42.4453L89.4988 41.9453L89.5014 41.4453L4.0026 41L4 41.5Z" fill="white"/>
</svg>
